<?xml version="1.0" encoding="utf-8"?>
<!-- Generator: Adobe Illustrator 27.7.0, SVG Export Plug-In . SVG Version: 6.00 Build 0)  -->
<svg version="1.1" id="Layer_1" xmlns="http://www.w3.org/2000/svg" xmlns:xlink="http://www.w3.org/1999/xlink" x="0px" y="0px"
	 viewBox="0 0 16 16" style="enable-background:new 0 0 16 16;" xml:space="preserve">
<style type="text/css">
	.st0{fill:#FFFFFF;}
	.st1{fill:none;stroke:#FFFFFF;stroke-width:2;stroke-miterlimit:10;}
</style>
<g>
	<path class="st0" d="M12,1c1.7,0,3,1.3,3,3v8c0,1.7-1.3,3-3,3H4c-1.7,0-3-1.3-3-3V4c0-1.7,1.3-3,3-3H12 M12,0H4C1.8,0,0,1.8,0,4v8
		c0,2.2,1.8,4,4,4h8c2.2,0,4-1.8,4-4V4C16,1.8,14.2,0,12,0L12,0z"/>
</g>
<polyline class="st1" points="6.8,3 3,3 3,6.8 "/>
<polyline class="st1" points="9.2,13 13,13 13,9.2 "/>
<polyline class="st1" points="3,9.2 3,13 6.8,13 "/>
<polyline class="st1" points="13,6.8 13,3 9.2,3 "/>
</svg>
