<?xml version="1.0" encoding="utf-8"?>
<!-- Generator: Adobe Illustrator 27.7.0, SVG Export Plug-In . SVG Version: 6.00 Build 0)  -->
<svg version="1.1" id="Layer_1" xmlns="http://www.w3.org/2000/svg" xmlns:xlink="http://www.w3.org/1999/xlink" x="0px" y="0px"
	 viewBox="0 0 18 18" style="enable-background:new 0 0 18 18;" xml:space="preserve">
<style type="text/css">
	.st0{fill:#FFFFFF;}
	.st1{fill:none;stroke:#FFFFFF;stroke-width:1.5;stroke-miterlimit:10;}
</style>
<g>
	<path d="M4.5,17.2c-2.1,0-3.8-1.7-3.8-3.8v-9c0-2.1,1.7-3.8,3.8-3.8h9c2.1,0,3.8,1.7,3.8,3.8v9c0,2.1-1.7,3.8-3.8,3.8H4.5z"/>
	<path class="st0" d="M13.5,1.5c1.7,0,3,1.3,3,3v9c0,1.7-1.3,3-3,3h-9c-1.7,0-3-1.3-3-3v-9c0-1.7,1.3-3,3-3H13.5 M13.5,0h-9
		C2,0,0,2,0,4.5v9C0,16,2,18,4.5,18h9c2.5,0,4.5-2,4.5-4.5v-9C18,2,16,0,13.5,0L13.5,0z"/>
</g>
<polyline class="st1" points="8,4.5 4.5,4.5 4.5,8 "/>
<polyline class="st1" points="10,13.5 13.5,13.5 13.5,10 "/>
<polyline class="st1" points="4.5,10 4.5,13.5 8,13.5 "/>
<polyline class="st1" points="13.5,8 13.5,4.5 10,4.5 "/>
</svg>
